<?xml version="1.0" encoding="UTF-8" standalone="no"?>
<!DOCTYPE svg PUBLIC "-//W3C//DTD SVG 1.1//EN" "http://www.w3.org/Graphics/SVG/1.1/DTD/svg11.dtd">
<svg width="100%" height="100%" viewBox="0 0 2711 1008" version="1.1" xmlns="http://www.w3.org/2000/svg" xmlns:xlink="http://www.w3.org/1999/xlink" xml:space="preserve" xmlns:serif="http://www.serif.com/" style="fill-rule:evenodd;clip-rule:evenodd;stroke-linecap:round;stroke-linejoin:round;stroke-miterlimit:1.5;">
    <g transform="matrix(1,0,0,1,-487.886,-326.557)">
        <path d="M1210.49,941.588C1210.49,925.251 1204,909.582 1192.44,898.029C1180.89,886.477 1165.22,879.987 1148.89,879.987C1013.12,879.987 689.426,879.987 553.655,879.987C537.317,879.987 521.648,886.477 510.096,898.029C498.543,909.582 492.053,925.251 492.053,941.588C492.053,1007.78 492.053,1112.37 492.053,1178.56C492.053,1194.89 498.543,1210.56 510.096,1222.12C521.648,1233.67 537.317,1240.16 553.655,1240.16C689.426,1240.16 1013.12,1240.16 1148.89,1240.16C1165.22,1240.16 1180.89,1233.67 1192.44,1222.12C1204,1210.56 1210.49,1194.89 1210.49,1178.56C1210.49,1112.37 1210.49,1007.78 1210.49,941.588Z" style="fill:none;stroke:black;stroke-width:8.33px;"/>
    </g>
    <g transform="matrix(1,0,0,1,500.128,-326.557)">
        <path d="M1210.49,941.588C1210.49,925.251 1204,909.582 1192.44,898.029C1180.89,886.477 1165.22,879.987 1148.89,879.987C1013.12,879.987 689.426,879.987 553.655,879.987C537.317,879.987 521.648,886.477 510.096,898.029C498.543,909.582 492.053,925.251 492.053,941.588C492.053,1007.78 492.053,1112.37 492.053,1178.56C492.053,1194.89 498.543,1210.56 510.096,1222.12C521.648,1233.67 537.317,1240.16 553.655,1240.16C689.426,1240.16 1013.12,1240.16 1148.89,1240.16C1165.22,1240.16 1180.89,1233.67 1192.44,1222.12C1204,1210.56 1210.49,1194.89 1210.49,1178.56C1210.49,1112.37 1210.49,1007.78 1210.49,941.588Z" style="fill:none;stroke:black;stroke-width:8.33px;"/>
    </g>
    <g transform="matrix(1,0,0,1,500.128,-794.519)">
        <path d="M1210.49,941.588C1210.49,925.251 1204,909.582 1192.44,898.029C1180.89,886.477 1165.22,879.987 1148.89,879.987C1013.12,879.987 689.426,879.987 553.655,879.987C537.317,879.987 521.648,886.477 510.096,898.029C498.543,909.582 492.053,925.251 492.053,941.588C492.053,1007.78 492.053,1112.37 492.053,1178.56C492.053,1194.89 498.543,1210.56 510.096,1222.12C521.648,1233.67 537.317,1240.16 553.655,1240.16C689.426,1240.16 1013.12,1240.16 1148.89,1240.16C1165.22,1240.16 1180.89,1233.67 1192.44,1222.12C1204,1210.56 1210.49,1194.89 1210.49,1178.56C1210.49,1112.37 1210.49,1007.78 1210.49,941.588Z" style="fill:none;stroke:black;stroke-width:8.33px;"/>
    </g>
    <g transform="matrix(1,0,0,1.57851,1369.07,-1188.77)">
        <path d="M1210.49,919.012C1210.49,908.662 1204,898.736 1192.44,891.417C1180.89,884.098 1165.22,879.987 1148.89,879.987C1013.12,879.987 689.426,879.987 553.655,879.987C537.317,879.987 521.648,884.098 510.096,891.417C498.543,898.736 492.053,908.662 492.053,919.012C492.053,988.268 492.053,1131.88 492.053,1201.13C492.053,1211.48 498.543,1221.41 510.096,1228.73C521.648,1236.05 537.317,1240.16 553.655,1240.16C689.426,1240.16 1013.12,1240.16 1148.89,1240.16C1165.22,1240.16 1180.89,1236.05 1192.44,1228.73C1204,1221.41 1210.49,1211.48 1210.49,1201.13C1210.49,1131.88 1210.49,988.268 1210.49,919.012Z" style="fill:none;stroke:black;stroke-width:6.31px;"/>
    </g>
    <g transform="matrix(2.55275,0,0,2.78461,-381.556,-2448.34)">
        <path d="M1210.49,902.109C1210.49,896.242 1207.95,890.615 1203.42,886.466C1198.89,882.317 1192.76,879.987 1186.36,879.987L516.185,879.987C509.785,879.987 503.647,882.317 499.121,886.466C494.596,890.615 492.053,896.242 492.053,902.109L492.053,1218.04C492.053,1223.9 494.596,1229.53 499.121,1233.68C503.647,1237.83 509.785,1240.16 516.185,1240.16L1186.36,1240.16C1192.76,1240.16 1198.89,1237.83 1203.42,1233.68C1207.95,1229.53 1210.49,1223.9 1210.49,1218.04L1210.49,902.109Z" style="fill:none;stroke:black;stroke-width:1.56px;"/>
    </g>
    <g transform="matrix(1,0,0,1,-487.861,-401.235)">
        <g transform="matrix(1,-0,-0,1,487.861,401.235)">
            <path d="M929.681,702.265L992.181,733.515L929.681,764.765L929.681,702.265Z"/>
            <path d="M722.601,733.515L942.181,733.515" style="fill:none;stroke:black;stroke-width:8.33px;"/>
        </g>
    </g>
    <g transform="matrix(1,0,0,1,-487.861,-401.235)">
        <g transform="matrix(1,-0,-0,1,487.861,401.235)">
            <path d="M1772.75,597.021L1710.62,628.984L1773.47,659.517L1772.75,597.021Z"/>
            <path d="M1760.61,628.412C1804.41,627.911 1861.13,627.262 1861.13,627.262" style="fill:none;stroke:black;stroke-width:8.33px;"/>
        </g>
    </g>
    <g transform="matrix(1,0,0,1,-487.861,-340.506)">
        <g transform="matrix(1,-0,-0,1,487.861,340.506)">
            <path d="M1798.27,657.457L1861.13,687.99L1798.99,719.953L1798.27,657.457Z"/>
            <path d="M1710.62,689.712C1710.62,689.712 1767.33,689.063 1811.13,688.562" style="fill:none;stroke:black;stroke-width:8.33px;"/>
        </g>
    </g>
    <g transform="matrix(1,0,0,1,-487.861,-743.868)">
        <g transform="matrix(1,-0,-0,1,487.861,743.868)">
            <path d="M1772.75,254.387L1710.62,286.35L1773.47,316.883L1772.75,254.387Z"/>
            <path d="M1760.61,285.778C1804.41,285.277 1861.13,284.628 1861.13,284.628" style="fill:none;stroke:black;stroke-width:8.33px;"/>
        </g>
    </g>
    <g transform="matrix(1,0,0,1,-487.861,-679.472)">
        <g transform="matrix(1,-0,-0,1,487.861,679.472)">
            <path d="M1798.27,318.492L1861.13,349.025L1798.99,380.988L1798.27,318.492Z"/>
            <path d="M1710.62,350.747C1710.62,350.747 1767.33,350.098 1811.13,349.597" style="fill:none;stroke:black;stroke-width:8.33px;"/>
        </g>
    </g>
    <g transform="matrix(1,0,0,1,-487.861,-401.235)">
        <g transform="matrix(1,-0,-0,1,487.861,401.235)">
            <path d="M1234.83,508.139L1266.08,445.639L1297.33,508.139L1234.83,508.139Z"/>
            <path d="M1266.08,553.43L1266.08,495.639" style="fill:none;stroke:black;stroke-width:8.33px;"/>
        </g>
    </g>
    <g transform="matrix(1,0,0,1,-320.083,-401.235)">
        <g transform="matrix(1,-0,-0,1,320.083,401.235)">
            <path d="M1402.6,490.93L1433.85,553.43L1465.1,490.93L1402.6,490.93Z"/>
            <path d="M1433.85,503.43L1433.85,445.639" style="fill:none;stroke:black;stroke-width:8.33px;"/>
        </g>
    </g>
    <g transform="matrix(1,0,0,1,-447.448,-375.143)">
        <g transform="matrix(100,0,0,100,921.891,1132.57)">
        </g>
        <text x="666.324px" y="1132.57px" style="font-family:'TimesNewRomanPSMT', 'Times New Roman', serif;font-size:100px;">NOOJ</text>
    </g>
    <g transform="matrix(1,0,0,1,514.603,-824.947)">
        <g transform="matrix(66.6667,0,0,66.6667,1020.1,1107.27)">
        </g>
        <text x="666.324px" y="1107.27px" style="font-family:'TimesNewRomanPS-BoldMT', 'Times New Roman', serif;font-weight:700;font-size:66.667px;">phrases.json</text>
    </g>
    <g transform="matrix(1,0,0,1,1413.48,-745.866)">
        <text x="666.324px" y="1108.28px" style="font-family:'TimesNewRomanPS-BoldItalicMT', 'Times New Roman', serif;font-weight:700;font-style:italic;font-size:66.667px;">search/click</text>
        <g transform="matrix(66.6667,0,0,66.6667,890.38,1177.78)">
        </g>
        <text x="666.324px" y="1177.78px" style="font-family:'TimesNewRomanPS-BoldItalicMT', 'Times New Roman', serif;font-weight:700;font-style:italic;font-size:66.667px;">&amp; hover</text>
    </g>
    <g transform="matrix(1,0,0,1,551.629,-373.379)">
        <g transform="matrix(66.6667,0,0,66.6667,927.489,1107.27)">
        </g>
        <text x="666.324px" y="1107.27px" style="font-family:'TimesNewRomanPS-BoldMT', 'Times New Roman', serif;font-weight:700;font-size:66.667px;">data.json</text>
    </g>
    <g transform="matrix(1,0,0,1,1359.87,-454.224)">
        <g transform="matrix(66.6667,0,0,66.6667,1049.49,1107.27)">
        </g>
        <text x="666.324px" y="1107.27px" style="font-family:'TimesNewRomanPS-BoldMT', 'Times New Roman', serif;font-weight:700;font-size:66.667px;">web interface</text>
    </g>
</svg>
